<svg id="visual" viewBox="0 0 960 540" width="960" height="540" xmlns="http://www.w3.org/2000/svg" xmlns:xlink="http://www.w3.org/1999/xlink" version="1.1"><rect x="0" y="0" width="960" height="540" fill="#FFFFFF"></rect><path d="M0 221L26.7 243.2C53.3 265.3 106.7 309.7 160 323.8C213.3 338 266.7 322 320 300.7C373.3 279.3 426.7 252.7 480 237.2C533.3 221.7 586.7 217.3 640 243.2C693.3 269 746.7 325 800 329.7C853.3 334.3 906.7 287.7 933.3 264.3L960 241L960 0L933.3 0C906.7 0 853.3 0 800 0C746.7 0 693.3 0 640 0C586.7 0 533.3 0 480 0C426.7 0 373.3 0 320 0C266.7 0 213.3 0 160 0C106.7 0 53.3 0 26.7 0L0 0Z" fill="#38A1F4" stroke-linecap="round" stroke-linejoin="miter"></path></svg>