<svg id="visual" viewBox="0 0 900 450" width="900" height="450" xmlns="http://www.w3.org/2000/svg" xmlns:xlink="http://www.w3.org/1999/xlink" version="1.1"><rect x="0" y="0" width="900" height="450" fill="#FFFFFF"></rect><path d="M0 359L25 361.2C50 363.3 100 367.7 150 360.5C200 353.3 250 334.7 300 326.7C350 318.7 400 321.3 450 322.3C500 323.3 550 322.7 600 328C650 333.3 700 344.7 750 354.8C800 365 850 374 875 378.5L900 383L900 451L875 451C850 451 800 451 750 451C700 451 650 451 600 451C550 451 500 451 450 451C400 451 350 451 300 451C250 451 200 451 150 451C100 451 50 451 25 451L0 451Z" fill="#38A1F4" stroke-linecap="round" stroke-linejoin="miter"></path></svg>