<svg id="visual" viewBox="0 0 1920 1080" width="1920" height="1080" xmlns="http://www.w3.org/2000/svg" xmlns:xlink="http://www.w3.org/1999/xlink" version="1.1"><rect x="0" y="0" width="1920" height="1080" fill="#FFFFFF"></rect><path d="M0 576L64 596.2C128 616.3 256 656.7 384 629C512 601.3 640 505.7 768 460.7C896 415.7 1024 421.3 1152 463.8C1280 506.3 1408 585.7 1536 577C1664 568.3 1792 471.7 1856 423.3L1920 375L1920 0L1856 0C1792 0 1664 0 1536 0C1408 0 1280 0 1152 0C1024 0 896 0 768 0C640 0 512 0 384 0C256 0 128 0 64 0L0 0Z" fill="#38A1F4" stroke-linecap="round" stroke-linejoin="miter"></path></svg>