<svg id="visual" viewBox="0 0 900 450" width="900" height="450" xmlns="http://www.w3.org/2000/svg" xmlns:xlink="http://www.w3.org/1999/xlink" version="1.1"><rect x="0" y="0" width="900" height="450" fill="#FFFFFF"></rect><path d="M0 89L25 86.8C50 84.7 100 80.3 150 87.5C200 94.7 250 113.3 300 121.3C350 129.3 400 126.7 450 125.7C500 124.7 550 125.3 600 120C650 114.7 700 103.3 750 93.2C800 83 850 74 875 69.5L900 65L900 0L875 0C850 0 800 0 750 0C700 0 650 0 600 0C550 0 500 0 450 0C400 0 350 0 300 0C250 0 200 0 150 0C100 0 50 0 25 0L0 0Z" fill="#38A1F4" stroke-linecap="round" stroke-linejoin="miter"></path></svg>